<svg width="149" height="149" viewBox="0 0 149 149" fill="none" xmlns="http://www.w3.org/2000/svg">
  <path d="M74.5 149C115.645 149 149 115.645 149 74.5C149 33.3547 115.645 0 74.5 0C33.3547 0 0 33.3547 0 74.5C0 115.645 33.3547 149 74.5 149Z" fill="#003087"/>
  <path d="M89.4 62.0833H77.9167C77.1833 62.0833 76.5833 62.6833 76.4167 63.4167L73.0833 82.5833C73 83.0667 73.3333 83.5 73.8333 83.5H79.5C79.8333 83.5 80.1667 83.25 80.25 82.9167L81.1667 77.5C81.3333 76.7667 81.9333 76.1667 82.6667 76.1667H86.5C91.8333 76.1667 95.1667 73.1667 96 68C96.3333 65.8333 95.8333 64.0833 94.6667 62.9167C93.3333 62.4167 91.5 62.0833 89.4 62.0833Z" fill="white"/>
  <path d="M53 62.0833H41.5C40.7667 62.0833 40.1667 62.6833 40 63.4167L36.6667 82.5833C36.5833 83.0667 36.9167 83.5 37.4167 83.5H43C43.7333 83.5 44.3333 82.9 44.5 82.1667L45.4167 77.5C45.5833 76.7667 46.1833 76.1667 46.9167 76.1667H50.75C56.0833 76.1667 59.4167 73.1667 60.25 68C60.5833 65.8333 60.0833 64.0833 58.9167 62.9167C57.5833 62.4167 55.75 62.0833 53 62.0833Z" fill="white"/>
</svg>