<svg width="149" height="149" viewBox="0 0 149 149" fill="none" xmlns="http://www.w3.org/2000/svg">
  <path d="M74.5 149C115.645 149 149 115.645 149 74.5C149 33.3547 115.645 0 74.5 0C33.3547 0 0 33.3547 0 74.5C0 115.645 33.3547 149 74.5 149Z" fill="#635BFF"/>
  <path d="M74.5 45C60.4167 45 49 56.4167 49 70.5C49 84.5833 60.4167 96 74.5 96C88.5833 96 100 84.5833 100 70.5C100 56.4167 88.5833 45 74.5 45ZM74.5 89C64.2833 89 56 80.7167 56 70.5C56 60.2833 64.2833 52 74.5 52C84.7167 52 93 60.2833 93 70.5C93 80.7167 84.7167 89 74.5 89Z" fill="white"/>
</svg>